{"title":"Carol.2015.DVDSCR.x264.AAC-P2P","uid":13034660,"size":683167954,"categoryP":"video","categoryS":"movies","magnet":"?xt=urn:btih:40c21c0ed1b897a713236b481287424402133a3b&amp;dn=Carol.2015.DVDSCR.x264.AAC-P2P&amp;tr=udp%3A%2F%2Ftracker.leechers-paradise.org%3A6969&amp;tr=udp%3A%2F%2Fzer0day.ch%3A1337&amp;tr=udp%3A%2F%2Fopen.demonii.com%3A1337&amp;tr=udp%3A%2F%2Ftracker.coppersurfer.tk%3A6969&amp;tr=udp%3A%2F%2Fexodus.desync.com%3A6969","seeders":6,"leechers":3,"uploader":"xxxlavalxxx","files":3,"time":1450466860,"description":"http://extraimago.com/image/geq\r\n \nhttp://www.imdb.com/title/tt2402927/\r\n\r\n\r\nSet in 1950s New York, a department-store clerk who dreams of a better life falls for an older, married woman.\r\n\r\nDirector: Todd Haynes\r\nWriters: Phyllis Nagy (screenplay), Patricia Highsmith (novel)\r\nStars: Cate Blanchett, Rooney Mara, Sarah Paulson\r\nGenres: Drama | Romance\r\nCountry: UK | USA\r\nLanguage: English\r\n\r\n\r\nFormat                                   : MPEG-4\r\nFormat profile                           : Base Media\r\nCodec ID                                 : isom\r\nFile size                                : 652 MiB\r\nDuration                                 : 1h 58mn\r\nOverall bit rate mode                    : Variable\r\nOverall bit rate                         : 769 Kbps\r\nWriting application                      : Lavf54.63.104\r\n\r\nVideo\r\nID                                       : 1\r\nFormat                                   : MPEG-4 Visual\r\nFormat profile                           :   \r\nFormat settings, BVOP                    : No\r\nFormat settings, QPel                    : No\r\nFormat settings, GMC                     : No warppoints\r\nFormat settings, Matrix                  : Default (H.263)\r\nCodec ID                                 : 20\r\nDuration                                 : 1h 58mn\r\nBit rate mode                            : Variable\r\nBit rate                                 : 638 Kbps\r\nMaximum bit rate                         : 1 024 Kbps\r\nWidth                                    : 576 pixels\r\nHeight                                   : 324 pixels\r\nDisplay aspect ratio                     : 16:9\r\nFrame rate mode                          : Constant\r\nFrame rate                               : 29.970 fps\r\nColor space                              : YUV\r\nChroma subsampling                       : 4:2:0\r\nBit depth                                : 8 bits\r\nScan type                                : Progressive\r\nCompression mode                         : Lossy\r\nBits/(Pixel*Frame)                       : 0.114\r\nStream size                              : 541 MiB (83%)\r\nWriting library                          : Lavc54.92.100\r\n\r\nAudio\r\nID                                       : 2\r\nFormat                                   : AAC\r\nFormat/Info                              : Advanced Audio Codec\r\nFormat profile                           : LC\r\nCodec ID                                 : 40\r\nDuration                                 : 1h 58mn\r\nDuration_LastFrame                       : -9ms\r\nBit rate mode                            : Variable\r\nBit rate                                 : 124 Kbps\r\nMaximum bit rate                         : 128 Kbps\r\nChannel(s)                               : 2 channels\r\nChannel positions                        : Front: L R\r\nSampling rate                            : 44.1 KHz\r\nCompression mode                         : Lossy\r\nStream size                              : 105 MiB (16%)\r\n\r\n \nhttp://extraimago.com/image/geL \nhttp://extraimago.com/image/geQ \nhttp://extraimago.com/image/geR \nhttp://extraimago.com/image/gem \nhttp://extraimago.com/image/gei","torrent":{"xt":"urn:btih:40c21c0ed1b897a713236b481287424402133a3b","amp;dn":"Carol.2015.DVDSCR.x264.AAC-P2P","amp;tr":["udp%3A%2F%2Ftracker.leechers-paradise.org%3A6969","udp%3A%2F%2Fzer0day.ch%3A1337","udp%3A%2F%2Fopen.demonii.com%3A1337","udp%3A%2F%2Ftracker.coppersurfer.tk%3A6969","udp%3A%2F%2Fexodus.desync.com%3A6969"],"infoHash":"40c21c0ed1b897a713236b481287424402133a3b","infoHashBuffer":{"type":"Buffer","data":[64,194,28,14,209,184,151,167,19,35,107,72,18,135,66,68,2,19,58,59]},"announce":[],"urlList":[]}}